# xmcd CD database file
# Copyright (C) 1996 Ti Kan
#
# Track frame offsets:
# 	150
# 	12125
# 	21943
# 	32548
# 	45335
# 	53023
# 	63978
# 	73588
# 	84213
# 	94938
# 	105118
# 	115050
# 	127475
# 	138910
# 	146983
# 	157395
# 	166100
# 	177498
#
# Disc length: 2497 seconds
#
# Revision: 1
# Processed by: cddbd v1.4b41PL1 Copyright (c) Steve Scherf et al.
# Submitted via: DiscPlay 3.4.1
#
DISCID=ef09bf12
DTITLE=Johnny Cash - Folsom Prison Blues
DYEAR=1900
DGENRE=
TTITLE0=You're The Nearest Thing To Heaven
TTITLE1=Rock Island Line
TTITLE2=Cold. Cold Heart
TTITLE3=Folsom Prison Blues
TTITLE4=Hey Good Lookin'
TTITLE5=I Love You Because
TTITLE6=It's Just About Time
TTITLE7=Straight A's In Love
TTITLE8=I Just Thought You'd Like To Know
TTITLE9=Goodbye Little Darlin'
TTITLE10=I Could Never Be Ashamed Of You
TTITLE11=Nex In Line
TTITLE12=The Port Of Lonely Hearts
TTITLE13=Sugartime
TTITLE14=There You Go
TTITLE15=Two Timin' Woman
TTITLE16=Big River
TTITLE17=Ballad Of A Teenage Queen
EXTD=
EXTT0=
EXTT1=
EXTT2=
EXTT3=
EXTT4=
EXTT5=
EXTT6=
EXTT7=
EXTT8=
EXTT9=
EXTT10=
EXTT11=
EXTT12=
EXTT13=
EXTT14=
EXTT15=
EXTT16=
EXTT17=
PLAYORDER=
